<svg xmlns="http://www.w3.org/2000/svg" viewBox="0 0 500 500"><title>FaceHair-7</title><path d="M204.44,252.5h38.34a7.74,7.74,0,0,1,7.74,7.74v0a12.26,12.26,0,0,1-12.26,12.26H184.44a0,0,0,0,1,0,0v0a20,20,0,0,1,20-20Z" fill="#53453e"/><path d="M256.53,252.5h39a20,20,0,0,1,20,20v0a0,0,0,0,1,0,0H262.42a12.95,12.95,0,0,1-12.95-12.95v0A7.05,7.05,0,0,1,256.53,252.5Z" fill="#53453e"/><path d="M248.45,347.5h0c-3.5,0-19.5-8.73-19.5-19.5V314.5h39V328C268,338.77,252,347.5,248.45,347.5Z" fill="#53453e"/></svg>