<svg xmlns="http://www.w3.org/2000/svg" viewBox="0 0 500 500"><title>FaceHair-8</title><path d="M305,247.31c-10.94-5-12.06,1.58-12.06,1.58s1.7-4.7,10.14-1,5.62,15-5.19,17.26-20.47-6.45-37.81-8.49c-4.87-.57-8-.47-10.09,0-2.05-.43-5.22-.53-10.09,0-17.34,2-27,10.73-37.81,8.49s-13.64-13.56-5.19-17.26,10.14,1,10.14,1-1.12-6.61-12.06-1.58-4.72,19.8,10.51,21.3,27.51,1.13,36.91-2.29a78.49,78.49,0,0,1,7.59-2.25,78.49,78.49,0,0,1,7.59,2.25c9.4,3.42,21.69,3.79,36.91,2.29S316,252.35,305,247.31Z" fill="#53453e"/></svg>