<svg xmlns="http://www.w3.org/2000/svg" viewBox="0 0 500 500"><title>FaceHair-2</title><path d="M331.57,260.82c-4.11-6.16-12.78-7.63-19.41-3.93A31.6,31.6,0,0,1,297,260.5a33.32,33.32,0,0,1-12.26-2.23,86.8,86.8,0,0,0-32.16-5.77h-6.88a97.18,97.18,0,0,0-33.15,6.22A31.11,31.11,0,0,1,202,260.5a28.92,28.92,0,0,1-14.45-3.6c-7-4.11-16.44-1.44-20.07,5.6a16.94,16.94,0,0,0-1.89,7.79v34c0,32.12,27.48,58.16,61.39,58.16h45.68c34.14,0,61.81-26.22,61.81-58.56V270.29A17,17,0,0,0,331.57,260.82Z" fill="#53453e"/></svg>