<svg width="29" height="21" viewBox="0 0 29 21" fill="none" xmlns="http://www.w3.org/2000/svg">
<path d="M15.7188 17.8289L16.0256 18.0139L16.022 17.6557L16.0167 17.1279L16.0156 17.0162L15.9199 16.9586L15.0163 16.4139C14.72 16.2301 14.351 16.2377 14.054 16.4044L14.054 16.4044L14.0515 16.4058L13.0567 16.9831L12.9559 17.0416L12.9571 17.1581L12.9623 17.6859L12.9658 18.0292L13.2627 17.8569L14.2563 17.2804C14.4372 17.1793 14.6496 17.1812 14.8115 17.2821L14.8115 17.2821L14.814 17.2836L15.7188 17.8289Z" fill="#8D9CB3" stroke="#8D9CB3" stroke-width="0.4"/>
<path d="M24.9871 15.3195L21.5416 16.8805C21.3668 16.9597 21.2896 17.1654 21.3693 17.34C21.449 17.5146 21.6553 17.592 21.8301 17.5128L25.2756 15.9518C25.4504 15.8726 25.5275 15.6668 25.4479 15.4922C25.3682 15.3176 25.1619 15.2403 24.9871 15.3195Z" fill="#8D9CB3" stroke="#8D9CB3" stroke-width="0.4" stroke-linejoin="round"/>
<path d="M7.26204 16.9823L4.09122 15.3457C3.93807 15.2667 3.74949 15.3266 3.67001 15.4795C3.59053 15.6324 3.65025 15.8204 3.8034 15.8995L6.97423 17.536C7.12737 17.6151 7.31595 17.5552 7.39543 17.4023C7.47491 17.2494 7.41519 17.0613 7.26204 16.9823Z" fill="#8D9CB3" stroke="#8D9CB3" stroke-width="0.4" stroke-linejoin="round"/>
<path d="M6.85556 19.6957L6.85555 19.6957L6.85568 19.6968C6.91394 20.221 7.34504 20.6306 7.86824 20.6254L11.9 20.5856C12.4353 20.5803 12.8594 20.1488 12.8941 19.6209L12.8941 19.6196L13.0892 16.3112L13.0893 16.3112L13.0895 16.3066C13.0997 16.0204 13.0054 15.7425 12.8135 15.5326C12.6253 15.3267 12.3651 15.1988 12.0743 15.2016L7.49919 15.2468C7.21132 15.2496 6.94198 15.3805 6.75592 15.5925L6.75584 15.5924L6.75178 15.5973C6.56936 15.819 6.47744 16.0986 6.50722 16.392L6.50722 16.392L6.5073 16.3928L6.85556 19.6957ZM7.57927 19.619L7.57928 19.619L7.57903 19.6166L7.23102 16.316C7.22348 16.2209 7.2502 16.14 7.29743 16.0812C7.35975 16.0167 7.42718 15.9872 7.5066 15.9864L12.0817 15.9413C12.1647 15.9404 12.2289 15.971 12.2782 16.0277L12.278 16.0279L12.2862 16.0363C12.3423 16.0935 12.3695 16.1717 12.3637 16.2547L12.3635 16.2575L12.1794 19.5638C12.1664 19.7306 12.0385 19.8445 11.9035 19.8458L7.86083 19.8858C7.71924 19.8872 7.59433 19.78 7.57927 19.619Z" fill="#8D9CB3" stroke="#8D9CB3" stroke-width="0.4"/>
<path d="M22.3124 16.2957C22.3356 16.0246 22.2428 15.7427 22.0574 15.5397C21.876 15.3414 21.6251 15.2178 21.3444 15.2206L16.9419 15.2641C16.6769 15.2667 16.4267 15.3802 16.2458 15.5863L16.2457 15.5862L16.241 15.5919C16.0758 15.7947 15.9897 16.0611 16.0051 16.3268L16.005 16.3268L16.0054 16.3309L16.2553 19.5092L16.2553 19.5092L16.2554 19.5107C16.2988 20.0169 16.7143 20.4267 17.222 20.4217L21.095 20.3835C21.5994 20.3785 21.997 19.9865 22.043 19.4801L22.0431 19.4789L22.3124 16.2957ZM22.3124 16.2957L22.1131 16.2785M22.3124 16.2957L22.3124 16.2954L22.1131 16.2785M22.1131 16.2785L21.8438 19.462L16.2047 16.3152C16.1922 16.099 16.2627 15.8819 16.3961 15.7183C16.5398 15.5546 16.7362 15.4661 16.9439 15.464L21.3464 15.4206C21.5645 15.4184 21.7627 15.5138 21.9097 15.6747C22.0567 15.8355 22.1317 16.062 22.1131 16.2785ZM16.705 16.2743L16.705 16.2743L16.7048 16.2727C16.6972 16.1879 16.7163 16.129 16.7621 16.0804C16.8231 16.0155 16.887 15.9892 16.9491 15.9886L21.3517 15.9451C21.4206 15.9444 21.4888 15.9743 21.5326 16.0246C21.5809 16.08 21.6069 16.1563 21.6018 16.2339L21.3327 19.4157L21.3327 19.4157L21.3326 19.4172C21.3218 19.5568 21.2077 19.6578 21.0877 19.6589L17.2147 19.6972C17.0937 19.6984 16.9802 19.5989 16.9651 19.4509L16.705 16.2743Z" fill="#8D9CB3" stroke="#8D9CB3" stroke-width="0.4"/>
<rect width="5.69665" height="4.2578" rx="1" transform="matrix(0.999951 -0.00987495 0.0100134 0.99995 7.20703 15.85)" fill="#8D9CB3"/>
<rect width="5.44305" height="4.06823" rx="1" transform="matrix(0.999951 -0.00987488 0.0100135 0.99995 16.4951 15.8511)" fill="#8D9CB3"/>
<path fill-rule="evenodd" clip-rule="evenodd" d="M19.289 5.75365C19.289 5.75365 25.3848 5.59988 28.14 6.78465C30.8942 7.98068 24.4959 11.1201 14.8944 11.3921C5.29297 11.664 -1.73746 11.0315 1.50852 8.64985C4.7545 6.26819 13.8519 6.06151 13.8519 6.06151L19.289 5.75365Z" fill="#8D9CB3"/>
<path fill-rule="evenodd" clip-rule="evenodd" d="M22.3458 9.39352C20.5253 8.86988 17.8268 8.30916 14.5489 8.3719C11.1245 8.43002 8.36149 9.14578 6.528 9.77153C5.61408 10.0045 4.5013 10.3693 4.5013 10.3693C4.55027 10.1665 7.02916 7.72585 7.07723 7.5324C7.37012 6.325 7.67361 5.10917 7.9665 3.90177C8.29843 2.59436 9.53418 1.66605 10.986 1.64502L17.5595 1.54008C19.0996 1.51808 20.4664 2.47919 20.843 3.85458L21.8256 7.47619L23.5754 9.74727L22.3458 9.39352Z" fill="#8D9CB3"/>
</svg>
