<svg width="25" height="23" viewBox="0 0 25 23" fill="none" xmlns="http://www.w3.org/2000/svg">
<path d="M13.486 15.5446L13.7912 15.7334V15.3745V14.8985V14.7871L13.6964 14.7284L12.8895 14.2294C12.618 14.0566 12.2782 14.0607 12.0038 14.2117L12.0038 14.2116L12.0013 14.2131L11.1021 14.7247L11.001 14.7822V14.8985V15.3745V15.7184L11.3 15.5483L12.1978 15.0374C12.3552 14.9513 12.5378 14.9553 12.6754 15.0433L12.6754 15.0433L12.6779 15.0448L13.486 15.5446Z" fill="#8D9CB3" stroke="#8D9CB3" stroke-width="0.4"/>
<path d="M21.7585 14.5415C21.7585 14.431 21.6689 14.3415 21.5585 14.3415H19.5097C19.3993 14.3415 19.3097 14.431 19.3097 14.5415V15.0175C19.3097 15.1279 19.3993 15.2175 19.5097 15.2175H21.5585C21.6689 15.2175 21.7585 15.1279 21.7585 15.0175V14.5415Z" fill="#8D9CB3" stroke="#8D9CB3" stroke-width="0.4" stroke-linejoin="round"/>
<path d="M5.48244 14.5415C5.48244 14.431 5.39289 14.3415 5.28244 14.3415H3.2337C3.12325 14.3415 3.0337 14.431 3.0337 14.5415V15.0175C3.0337 15.1279 3.12325 15.2175 3.2337 15.2175H5.28244C5.39289 15.2175 5.48244 15.1279 5.48244 15.0175V14.5415Z" fill="#8D9CB3" stroke="#8D9CB3" stroke-width="0.4" stroke-linejoin="round"/>
<path d="M5.08328 17.3924L5.08339 17.3936C5.13837 17.9396 5.58132 18.3708 6.12464 18.3708H10.3473C10.9032 18.3708 11.3475 17.9256 11.389 17.3767L11.3891 17.3753L11.6281 13.9008L11.6282 13.9008L11.6284 13.8962C11.6419 13.5982 11.5469 13.308 11.3501 13.0875C11.1569 12.8711 10.8882 12.7351 10.5863 12.7351H5.79457C5.49564 12.7351 5.21467 12.8687 5.01937 13.0875L5.0193 13.0874L5.0152 13.0923C4.82346 13.3214 4.7253 13.6116 4.75314 13.9171L4.75314 13.9171L4.75321 13.9179L5.08328 17.3924ZM5.82315 17.3212L5.82317 17.3212L5.82294 17.3189L5.49309 13.8467C5.48596 13.7437 5.51569 13.6561 5.56772 13.5926C5.63541 13.5236 5.70871 13.4921 5.79457 13.4921H10.5863C10.6757 13.4921 10.7452 13.5259 10.7982 13.5882L10.7979 13.5885L10.806 13.5969C10.8663 13.6599 10.8949 13.7454 10.8877 13.8355L10.8876 13.8383L10.66 17.3109C10.6443 17.4914 10.505 17.6138 10.3587 17.6138H6.12464C5.97181 17.6138 5.83771 17.4962 5.82315 17.3212Z" fill="#8D9CB3" stroke="#8D9CB3" stroke-width="0.4"/>
<path d="M13.4033 17.3753L13.4033 17.3753L20.0391 13.9061L19.84 13.8871L20.0391 13.9058L20.0391 13.906C20.0671 13.6138 19.9703 13.3085 19.773 13.0875C19.5798 12.8711 19.311 12.7351 19.0092 12.7351H14.1833C13.8981 12.7351 13.6277 12.855 13.4308 13.0756L13.4307 13.0755L13.4261 13.0812C13.2459 13.2985 13.1503 13.5856 13.164 13.8728L13.164 13.8728L13.1642 13.8769L13.4033 17.3753ZM13.8933 13.8252L13.8933 13.8252L13.8932 13.8236C13.8854 13.7255 13.9083 13.6548 13.9636 13.5969C14.0343 13.523 14.1094 13.4921 14.1833 13.4921H19.0092C19.0898 13.4921 19.1697 13.5278 19.221 13.5882L19.3707 13.461L19.221 13.5882C19.2768 13.6538 19.3062 13.7435 19.2993 13.8342L18.9694 17.3309L18.9694 17.3309L18.9693 17.3324C18.955 17.4962 18.8205 17.6138 18.6791 17.6138H14.4337C14.2903 17.6138 14.1593 17.4944 14.1436 17.3219L13.8933 13.8252Z" fill="#8D9CB3" stroke="#8D9CB3" stroke-width="0.4"/>
<path fill-rule="evenodd" clip-rule="evenodd" d="M16.0271 4.8069C16.0271 4.8069 21.2362 4.755 23.574 5.80689C25.9108 6.86843 21.129 10.1203 12.9237 10.2276C4.71843 10.3348 -2.00395 9.0562 0.800375 7.05683C3.6047 5.05746 11.3785 4.99955 11.3785 4.99955L16.0271 4.8069Z" fill="#8D9CB3"/>
<path fill-rule="evenodd" clip-rule="evenodd" d="M18.5892 7.96746C17.0411 7.49468 14.7434 6.97859 11.9426 6.9894C9.01668 6.99432 6.64704 7.57171 5.07258 8.08412C4.28882 8.27187 3.33345 8.57002 3.33345 8.57002C3.37796 8.39681 5.52779 6.33694 5.57141 6.17172C5.83759 5.14046 6.11295 4.10212 6.37914 3.07085C6.68 1.95437 7.74788 1.17473 8.98832 1.17574L14.6048 1.17197C15.9206 1.1733 17.0754 2.01518 17.3789 3.19923L18.1702 6.31692L19.6348 8.28685L18.5892 7.96746Z" fill="#8D9CB3"/>
</svg>
