<svg width="22" height="18" viewBox="0 0 22 18" fill="none" xmlns="http://www.w3.org/2000/svg">
<path d="M21.375 11.0649L19.5862 9.41014C19.1614 8.96563 18.6341 8.62332 18.0468 8.41077C17.4594 8.19822 16.8284 8.12137 16.2046 8.18642C15.5807 8.25146 14.9814 8.45658 14.455 8.78525C13.9286 9.11392 13.4897 9.55697 13.1737 10.0787L7.93547 18H2.67188C1.96325 18 1.28365 17.7291 0.782574 17.2468C0.2815 16.7646 0 16.1106 0 15.4286V2.57143C0 1.88944 0.2815 1.23539 0.782574 0.753154C1.28365 0.270918 1.96325 0 2.67188 0H18.7031C19.4118 0 20.0914 0.270918 20.5924 0.753154C21.0935 1.23539 21.375 1.88944 21.375 2.57143V11.0649ZM21.375 14.6031V15.4286C21.375 16.1106 21.0935 16.7646 20.5924 17.2468C20.0914 17.7291 19.4118 18 18.7031 18H11.3715L15.4822 11.3734C15.5874 11.1995 15.7337 11.0517 15.9091 10.9421C16.0845 10.8324 16.2843 10.764 16.4922 10.7422C16.7002 10.7204 16.9106 10.746 17.1064 10.8167C17.3022 10.8875 17.478 11.0016 17.6197 11.1497L21.375 14.6031ZM8.01562 11.5714C8.54194 11.5714 9.0631 11.4717 9.54935 11.2778C10.0356 11.084 10.4774 10.7999 10.8496 10.4417C11.2217 10.0835 11.5169 9.65832 11.7184 9.19035C11.9198 8.72238 12.0234 8.22081 12.0234 7.71429C12.0234 7.20776 11.9198 6.70619 11.7184 6.23822C11.5169 5.77025 11.2217 5.34504 10.8496 4.98687C10.4774 4.6287 10.0356 4.34459 9.54935 4.15075C9.0631 3.95691 8.54194 3.85714 8.01562 3.85714C6.95269 3.85714 5.93328 4.26352 5.18167 4.98687C4.43006 5.71023 4.00781 6.69131 4.00781 7.71429C4.00781 8.73726 4.43006 9.71834 5.18167 10.4417C5.93328 11.1651 6.95269 11.5714 8.01562 11.5714Z" fill="#8D9CB3"/>
</svg>
