<svg width="20" height="20" viewBox="0 0 20 20" fill="none" xmlns="http://www.w3.org/2000/svg">
<path d="M5.20012 5.21713H0.886926C0.39707 5.21713 0 4.63318 0 3.91276C0 3.19235 0.39707 2.6084 0.886926 2.6084H5.20012C5.68997 2.6084 6.08704 3.19235 6.08704 3.91276C6.08704 4.63318 5.68997 5.21713 5.20012 5.21713Z" fill="#8D9CB3"/>
<path d="M17.815 2.60873H12.6203C11.894 2.60873 11.3046 2.02438 11.3046 1.30437C11.3046 0.584356 11.894 0 12.6203 0H17.815C18.5413 0 19.1308 0.584356 19.1308 1.30437C19.1308 2.02438 18.5413 2.60873 17.815 2.60873Z" fill="#8D9CB3"/>
<path d="M3.91313 8.69614C4.63351 8.69614 5.2175 8.11215 5.2175 7.39177C5.2175 6.67139 4.63351 6.0874 3.91313 6.0874C3.19275 6.0874 2.60876 6.67139 2.60876 7.39177C2.60876 8.11215 3.19275 8.69614 3.91313 8.69614Z" fill="#8D9CB3"/>
<path d="M15.2176 8.69614C15.938 8.69614 16.5219 8.11215 16.5219 7.39177C16.5219 6.67139 15.938 6.0874 15.2176 6.0874C14.4972 6.0874 13.9132 6.67139 13.9132 7.39177C13.9132 8.11215 14.4972 8.69614 15.2176 8.69614Z" fill="#8D9CB3"/>
<path d="M3.47986 13.9131C3.47986 13.9418 3.47827 13.9689 3.47827 13.9976C3.47827 17.3134 6.00825 20.0001 9.13053 20.0001C12.2528 20.0001 14.7828 17.3134 14.7828 13.9976C14.7828 13.9689 14.7812 13.9418 14.7812 13.9131H3.47986Z" fill="#8D9CB3"/>
</svg>
