<svg width="15" height="22" viewBox="0 0 15 22" fill="none" xmlns="http://www.w3.org/2000/svg">
<path d="M14.5022 10.2618C14.3584 11.6928 12.8936 14.3768 12.8313 14.4903C12.7703 14.6014 12.6591 14.6665 12.5421 14.6665C12.5122 14.6665 12.4819 14.6623 12.452 14.6534C12.3052 14.61 12.2048 14.467 12.2078 14.3056C12.2083 14.276 12.2633 11.344 12.2907 10.5615C12.3157 9.84652 12.0526 8.51584 11.7212 8.03972C11.4674 7.67519 11.2956 6.95295 11.1937 6.38965C10.7463 6.77887 9.92643 7.27278 8.51133 7.50775C8.32983 7.53784 8.1154 7.55253 7.85591 7.55253C7.56422 7.55253 7.24805 7.53465 6.91323 7.5158C6.54581 7.49509 6.16584 7.47359 5.78262 7.47359C4.84078 7.47359 3.6677 7.5897 2.95041 8.49514C1.67852 10.1005 1.74749 13.8728 1.75836 14.265C1.76028 14.2806 1.76137 14.2964 1.76137 14.3125C1.76137 14.5066 1.61365 14.6643 1.43073 14.6665C1.42881 14.6665 1.42688 14.6665 1.42496 14.6665C1.26988 14.6665 1.13236 14.5522 1.09858 14.3879C1.03455 14.0776 -0.458971 6.76604 0.142449 4.85604C0.548495 3.56643 1.19121 2.5063 2.0528 1.70512C3.26943 0.573652 4.88668 0 6.85956 0C10.6497 0 11.7519 2.10372 12.0201 2.83339C12.5364 2.91941 13.7794 3.24438 14.2811 4.41266C14.8515 5.74104 14.6645 8.64744 14.5022 10.2618Z" fill="#8D9CB3"/>
<path d="M12.585 11.9165C12.5847 11.9165 12.5844 11.9165 12.5841 11.9165C12.4474 11.9169 12.3368 12.0256 12.3366 12.1596V12.1896C12.3253 13.2471 11.273 15.0282 10.8683 15.6256C10.4546 16.2362 9.90049 16.5196 9.58071 16.6401C9.49747 16.1103 9.2356 15.0438 8.45546 14.7083L8.42871 14.6968C7.98851 14.5081 7.43585 14.4041 6.8727 14.4041C6.30949 14.4041 5.75683 14.5081 5.31601 14.697L5.28938 14.7085C4.50955 15.0438 4.2478 16.1103 4.16457 16.64C3.84442 16.5196 3.29058 16.236 2.87695 15.6256C2.47276 15.029 1.42193 13.2482 1.41318 12.1861V12.1599C1.41318 12.0258 1.30263 11.9171 1.16589 11.9165C1.16558 11.9165 1.16521 11.9165 1.1649 11.9165C1.02866 11.9165 0.917743 12.0243 0.916626 12.158V16.0914C0.916626 19.3255 3.56827 21.9759 6.82752 21.9996L6.87264 21.9998C6.87283 21.9998 6.87276 21.9998 6.87295 21.9998C8.46371 21.9998 9.95945 21.3925 11.0842 20.2899C12.2091 19.1872 12.8286 17.7211 12.8286 16.1619L12.8331 12.1921C12.8332 12.1807 12.8332 12.1693 12.8331 12.1579C12.8321 12.0243 12.7213 11.9165 12.585 11.9165ZM8.28154 18.6348C8.17255 18.763 8.02545 18.8282 7.83167 18.8338C7.81845 18.8342 7.8056 18.8344 7.793 18.8344H7.79287C7.61331 18.8344 7.52989 18.7954 7.513 18.762C7.44945 18.6363 7.63708 18.2398 7.84712 17.9695C7.90454 17.896 7.91434 17.7968 7.87257 17.7139C7.83074 17.6308 7.74446 17.5782 7.64999 17.5782H6.09529C6.00088 17.5782 5.91473 17.6308 5.87289 17.7137C5.83106 17.7967 5.8408 17.8958 5.89803 17.9693C6.10832 18.2398 6.29602 18.6363 6.23246 18.762C6.21558 18.7954 6.13209 18.8344 5.9524 18.8344C5.93981 18.8344 5.92683 18.8342 5.91361 18.8338C5.71983 18.8282 5.57273 18.7631 5.46374 18.6348C5.16363 18.2814 5.20348 17.5328 5.24407 17.2744C5.24482 17.2697 5.24544 17.265 5.24594 17.2603C5.24674 17.2524 5.3368 16.4668 5.79382 16.3151C6.26194 16.1597 6.67843 15.969 6.87264 15.8754C7.06685 15.9689 7.48334 16.1597 7.95146 16.3151C8.33393 16.4421 8.47662 17.0408 8.49934 17.2603C8.49978 17.2649 8.50046 17.2697 8.50114 17.2742C8.5418 17.5328 8.58165 18.2815 8.28154 18.6348Z" fill="#8D9CB3"/>
</svg>
