<svg width="16" height="24" viewBox="0 0 16 24" fill="none" xmlns="http://www.w3.org/2000/svg">
<path d="M9.24739 0.00244141H2.05368C1.75275 0.00336118 1.46442 0.122151 1.25164 0.332872C1.03885 0.543593 0.918898 0.829129 0.917969 1.12713V10.0288C0.918071 8.34147 1.53904 6.71205 2.66467 5.44542C2.94142 5.12718 3.31174 4.90262 3.72378 4.80319C4.13582 4.70376 4.56895 4.73443 4.96251 4.89092C5.75486 5.21351 6.76732 5.40793 7.87309 5.40793C8.80223 5.4179 9.72595 5.26653 10.6023 4.96067C11.1145 4.77018 11.6747 4.74644 12.2015 4.89288C12.7283 5.03933 13.1941 5.34834 13.5314 5.77498C14.4615 6.96044 14.9736 8.49898 14.9995 10C14.9995 10.0384 15.0043 9.99039 15.0043 10.0288V5.70349C14.9997 4.19289 14.3916 2.74548 13.313 1.67732C12.2344 0.609162 10.7728 0.00704061 9.24739 0.00244141Z" fill="#C4CFDE"/>
<path d="M7.81191 22.1983C7.47443 22.1983 5.93164 21.3595 5.93164 20.3247V19.0275H9.69218V20.3247C9.697 21.3595 8.15422 22.1983 7.81191 22.1983Z" fill="#C4CFDE"/>
<path fill-rule="evenodd" clip-rule="evenodd" d="M13.1434 13.4375C13.6964 13.1002 14.4196 13.2342 14.7624 13.7959C14.9196 14.0511 15.0039 14.3517 15.0043 14.6594V17.7232C15.0043 20.6721 12.6963 23.063 9.84871 23.063H6.03853C3.21008 23.063 0.917969 20.6885 0.917969 17.7597V14.6594C0.917779 14.4123 0.971841 14.1687 1.07562 13.9491C1.3784 13.3071 2.16579 13.0637 2.74966 13.4384C3.11832 13.661 3.53386 13.7742 3.95494 13.7667C4.25464 13.7686 4.55237 13.7137 4.83492 13.6044C5.71932 13.2406 6.65509 13.0487 7.59997 13.0372H8.17383C9.09039 13.0254 10.0007 13.2039 10.8563 13.5634C11.1824 13.7008 11.5294 13.7698 11.8789 13.7667C12.3189 13.7741 12.7537 13.6609 13.1434 13.4375ZM4.94347 16.065C4.94369 16.0581 4.9439 16.0512 4.9439 16.0441H10.9792C10.9792 16.0512 10.9794 16.0581 10.9796 16.065C10.9798 16.0719 10.98 16.0788 10.98 16.0859C10.98 17.7244 9.62894 19.052 7.96154 19.052C6.29414 19.052 4.94305 17.7244 4.94305 16.0859C4.94305 16.0788 4.94326 16.0719 4.94347 16.065Z" fill="#C4CFDE"/>
</svg>
