<svg width="24" height="24" viewBox="0 0 24 24" fill="none" xmlns="http://www.w3.org/2000/svg">
<mask id="mask0" mask-type="alpha" maskUnits="userSpaceOnUse" x="0" y="0" width="24" height="24">
<ellipse cx="12.3814" cy="11.5327" rx="11.5709" ry="11.5303" fill="#C4C4C4"/>
</mask>
<g mask="url(#mask0)">
<path d="M19.8983 23.6926L19.5334 22.0763L19.54 22.07L19.0518 19.9065C19.0405 19.8555 19.0257 19.8055 19.0074 19.7568C18.8348 19.3107 18.54 18.9289 18.1605 18.6602C17.7811 18.3914 17.3343 18.2479 16.8771 18.2479H14.3281V15.0913C14.8637 14.8387 15.351 14.485 15.7659 14.0477C15.8743 13.9334 15.9779 13.8135 16.0756 13.6885C16.4214 13.2479 16.694 12.7488 16.8819 12.2124C17.0752 11.6584 17.174 11.0728 17.1737 10.4826V9.26661C17.6637 9.14035 18.3119 8.3133 18.3119 7.83096C18.3118 7.68509 18.2798 7.54121 18.2183 7.41053C18.1568 7.27986 18.0675 7.16592 17.9573 7.07762C17.8471 6.98932 17.7191 6.92903 17.5831 6.90146C17.4472 6.87389 17.3071 6.87979 17.1737 6.91869V5.0531C17.1737 3.71358 16.6687 2.42893 15.77 1.48175C14.8712 0.534563 13.6522 0.00244141 12.3811 0.00244141C11.11 0.00244141 9.89104 0.534563 8.99226 1.48175C8.09348 2.42893 7.58855 3.71358 7.58855 5.0531V6.88901C7.51072 6.86489 7.43004 6.85256 7.34892 6.8524C6.85289 6.8524 6.45031 7.30443 6.45031 7.86253C6.45031 8.37706 7.09851 9.17759 7.58855 9.29818V10.4826C7.58788 11.0735 7.68686 11.6599 7.88089 12.2143C8.10328 12.8491 8.44366 13.4307 8.88209 13.925C9.32052 14.4194 9.84818 14.8165 10.4341 15.0932V18.2498H7.83716C7.38514 18.2498 6.94311 18.3901 6.56635 18.6533C6.18959 18.9165 5.8948 19.2909 5.71885 19.7297C5.69684 19.7853 5.67979 19.843 5.66793 19.902L4.86038 23.709C4.82583 23.8722 4.82651 24.0414 4.86237 24.2043C4.89822 24.3672 4.96834 24.5195 5.06754 24.65C5.16674 24.7804 5.29249 24.8858 5.4355 24.9582C5.57851 25.0306 5.73512 25.0682 5.89378 25.0682H18.8685C19.0285 25.0683 19.1865 25.0301 19.3305 24.9566C19.4745 24.883 19.6008 24.776 19.6999 24.6436C19.7991 24.5112 19.8684 24.3568 19.9028 24.1921C19.9371 24.0274 19.9356 23.8566 19.8983 23.6926Z" fill="#8D9CB3"/>
</g>
</svg>
