<svg width="17" height="22" viewBox="0 0 17 22" fill="none" xmlns="http://www.w3.org/2000/svg">
<path d="M4.44953 16.4031L0.61535 18.5117C0.390352 18.6354 0.188145 18.7874 0 18.9532C2.23543 20.8535 5.12112 22 8.274 22C11.4036 22 14.2709 20.8706 16.5 18.9962C16.2944 18.8212 16.0713 18.6637 15.824 18.5396L11.7183 16.4701C11.1878 16.2026 10.8527 15.656 10.8527 15.0581V13.434C10.9682 13.3015 11.1001 13.1314 11.2412 12.9304C11.8007 12.1335 12.2241 11.2569 12.5174 10.3373C13.0441 10.1735 13.432 9.68315 13.432 9.10038V7.36674C13.432 6.9854 13.2637 6.64464 13.0023 6.40605V3.89995C13.0023 3.89995 13.513 0 8.27449 0C3.03601 0 3.54662 3.89995 3.54662 3.89995V6.40605C3.28477 6.64464 3.117 6.9854 3.117 7.36674V9.10038C3.117 9.55701 3.35509 9.95889 3.71149 10.1911C4.14112 12.0768 5.26611 13.434 5.26611 13.434V15.018C5.26563 15.5949 4.95238 16.1264 4.44953 16.4031Z" fill="#C4CFDE"/>
</svg>
