<svg width="22" height="20" viewBox="0 0 22 20" fill="none" xmlns="http://www.w3.org/2000/svg">
<path d="M21.7125 2.94626C21.669 2.81984 21.5786 2.71588 21.4608 2.65927L17.4324 0.731943C16.5755 0.431099 15.7025 0.193463 14.821 0.0197735C14.79 0.013475 14.7591 0.010437 14.7286 0.010437C14.5104 0.010437 14.315 0.166565 14.2664 0.395532C13.9445 1.86418 12.6901 2.96374 11.174 2.96374C9.65808 2.96374 8.40358 1.86426 8.08177 0.395532C8.03258 0.166565 7.83753 0.010437 7.61947 0.010437C7.58901 0.010437 7.55812 0.013475 7.52709 0.0197735C6.64567 0.193463 5.77268 0.431099 4.91442 0.731943L0.887461 2.65919C0.768918 2.71581 0.67783 2.81977 0.636433 2.94618C0.593606 3.07408 0.601328 3.21212 0.661672 3.33276L2.4105 6.90968C2.49237 7.07945 2.65889 7.18133 2.83506 7.18133C2.88053 7.18133 2.92665 7.17452 2.97212 7.16036L4.9145 6.56371V18.5656C4.9145 18.8381 5.12906 19.0604 5.39274 19.0604H16.9556C17.2185 19.0604 17.4324 18.8381 17.4324 18.5656V6.56386L19.3762 7.16051C19.4217 7.17466 19.4677 7.18148 19.5131 7.18148C19.6889 7.18148 19.8548 7.07959 19.9378 6.90983L21.6873 3.33291C21.7462 3.2122 21.7546 3.07415 21.7125 2.94626Z" fill="#8D9CB3"/>
</svg>
