<svg width="22" height="19" viewBox="0 0 22 19" fill="none" xmlns="http://www.w3.org/2000/svg">
<path d="M21.2741 2.85568C21.2302 2.73272 21.1391 2.63159 21.0203 2.57653L16.9593 0.701811C16.0954 0.40918 15.2154 0.17803 14.3267 0.00908163C14.2954 0.00295511 14.2643 0 14.2336 0C14.0136 0 13.8166 0.151866 13.7676 0.374583C13.4431 1.80314 12.1786 2.87269 10.6502 2.87269C9.12199 2.87269 7.85734 1.80322 7.53292 0.374583C7.48333 0.151866 7.2867 0 7.06687 0C7.03617 0 7.00503 0.00295511 6.97375 0.00908163C6.08519 0.17803 5.20513 0.40918 4.33992 0.701811L0.280339 2.57646C0.160835 2.63152 0.0690097 2.73265 0.0272772 2.85561C-0.0158967 2.98001 -0.00811245 3.11429 0.0527203 3.23163L1.81572 6.71092C1.89825 6.87605 2.06611 6.97516 2.24371 6.97516C2.28955 6.97516 2.33604 6.96853 2.38188 6.95476L4.33999 6.3744V18.0487C4.33999 18.3138 4.55629 18.53 4.82211 18.53H16.4786C16.7437 18.53 16.9593 18.3137 16.9593 18.0487V6.37454L18.9188 6.9549C18.9647 6.96867 19.0111 6.9753 19.0568 6.9753C19.2341 6.9753 19.4013 6.8762 19.485 6.71107L21.2486 3.23178C21.308 3.11436 21.3165 2.98009 21.2741 2.85568Z" fill="#8D9CB3"/>
</svg>
