<svg width="29" height="16" viewBox="0 0 29 16" fill="none" xmlns="http://www.w3.org/2000/svg">
<path d="M28.5347 6.77778C28.5142 6.16309 28.08 5.66125 27.5039 5.58284L27.0492 5.5204L21.1804 0.959622C20.039 0.0712349 18.5971 -0.219471 17.2249 0.168973C16.7332 0.306833 16.4399 0.84115 16.5715 1.35987C16.7033 1.87945 17.2146 2.18758 17.7008 2.04862C18.5266 1.81682 19.397 1.98795 20.0865 2.5252L23.6094 5.2629C22.8848 5.27666 22.1593 5.32761 21.4346 5.43336C20.3304 5.59379 19.2236 5.84028 18.1824 6.15832L17.6247 6.27386C15.4649 6.722 13.2378 6.72775 11.0566 6.29043L10.4272 6.16731C9.34898 5.84028 8.24126 5.59379 7.13627 5.43336C6.41157 5.32761 5.68583 5.2766 4.96114 5.2629L8.48434 2.5252C9.17365 1.98899 10.044 1.81792 10.87 2.04862C11.3588 2.18875 11.8672 1.8803 11.9991 1.35987C12.1308 0.841211 11.8378 0.306833 11.3458 0.168973C9.9745 -0.220328 8.53259 0.0711737 7.39042 0.959622L1.52053 5.52125L1.06866 5.58284C0.490699 5.66125 0.0572156 6.16426 0.037786 6.77778L0.000608686 7.86293C-0.015109 8.3844 0.275233 8.85988 0.67908 9.0222C0.851626 9.11731 0.963042 9.2767 0.974062 9.44893L1.10584 11.4961C1.33783 13.9667 3.28346 15.8768 5.63195 15.9402L7.7949 15.9999C9.4093 15.9999 10.8874 15.1322 11.7578 13.6634L13.503 10.4314C13.619 10.2486 13.9391 10.1829 14.2277 10.1829C14.2305 10.1829 14.3567 10.181 14.3567 10.181C14.6334 10.181 14.9599 10.2593 15.0526 10.4031L16.8239 13.681C17.685 15.1323 19.1631 16 20.7775 16L22.9395 15.9403C25.2879 15.8768 27.2338 13.9667 27.4676 11.4814L27.5983 9.44906C27.6094 9.27688 27.7201 9.11743 27.846 9.04391C28.2961 8.86 28.5876 8.38458 28.5707 7.86201L28.5347 6.77778ZM23.0017 7.44304C23.3301 7.44304 23.6179 7.46054 23.8591 7.49491C24.6385 7.60549 25.4401 8.1477 25.4755 9.10942L25.5542 11.2042C25.5811 11.9197 25.3401 12.6036 24.8779 13.1321C24.4156 13.6584 23.7887 13.9648 23.1113 13.9923C23.1113 13.9923 21.4141 14.0607 21.3196 14.0626C18.2267 14.0626 17.3509 10.81 17.3158 10.6779C17.1708 10.0692 17.2739 9.41866 17.5997 8.89229C17.9263 8.36372 18.4494 8.00079 19.036 7.89516C20.7303 7.59075 22.0275 7.44304 23.0017 7.44304ZM7.25754 14.0625C7.15732 14.0607 5.4612 13.9922 5.4612 13.9922C4.78302 13.9648 4.15571 13.6584 3.69351 13.1321C3.23155 12.6035 2.99022 11.9197 3.01707 11.2042L3.09589 9.10936C3.13127 8.14758 3.93299 7.60537 4.71244 7.49485C5.67272 7.35992 7.27251 7.488 9.53539 7.8951C10.1219 8.00072 10.645 8.36366 10.9718 8.89113C11.2973 9.4186 11.4005 10.0692 11.2566 10.6721C11.2204 10.81 10.3446 14.0625 7.25754 14.0625Z" fill="#8D9CB3"/>
</svg>
