<svg xmlns="http://www.w3.org/2000/svg" viewBox="0 0 500 500"><title>Mouth-37</title><path d="M271.4,282.48c.1-4.48-6.9-7.48-14-12.15-2.62-1.71-6,.9-8.35,2.4-2.34-1.5-5.56-3.82-8.35-2.4C229.5,276,227.5,279,226.6,282.48a3.92,3.92,0,0,0,.12,1.52h-.12c.11,9.9,10.1,17.9,22.4,17.9s22.29-8,22.4-17.9h-.12A12.63,12.63,0,0,0,271.4,282.48Z" fill="#ed2761"/><g opacity="0.19"><path d="M264.39,286.18a120.12,120.12,0,0,1-30.78,0,1.51,1.51,0,0,1-1.32-1.7h0a1.52,1.52,0,0,1,1.7-1.28,116.92,116.92,0,0,0,30,0,1.52,1.52,0,0,1,1.7,1.28h0A1.51,1.51,0,0,1,264.39,286.18Z"/></g><path d="M270.33,289.38S273.5,283,278.5,281c0,0-6,2-10-3" fill="#ed2761"/><path d="M227.67,289.38S224.5,283,219.5,281a11.46,11.46,0,0,0,10-3" fill="#ed2761"/></svg>