<svg width="7" height="10" viewBox="0 0 7 10" fill="none" xmlns="http://www.w3.org/2000/svg">
<path d="M6.80555 3.75H6.22222V2.91666C6.22222 1.3084 5.00106 0 3.5 0C1.99894 0 0.777784 1.3084 0.777784 2.91666V3.75H0.194451C0.0869714 3.75 0 3.84318 0 3.95834V9.16668C0 9.62627 0.348815 10 0.777784 10H6.22223C6.65119 10 7 9.62627 7 9.16666V3.95834C7 3.84318 6.91303 3.75 6.80555 3.75ZM5.05555 3.75H1.94445V2.91666C1.94445 1.99768 2.64228 1.25 3.5 1.25C4.35772 1.25 5.05555 1.99768 5.05555 2.91666V3.75Z" fill="#8D9CB3"/>
</svg>
