<svg id="Layer_1" data-name="Layer 1" xmlns="http://www.w3.org/2000/svg" viewBox="0 0 500 500"><defs><style>.cls-1{opacity:0.18;}</style></defs><title>HairShadow-14</title><path class="cls-1" d="M333.19,105.82C313.14,85.23,288.5,76,288.5,76A121.23,121.23,0,0,0,236.68,69a123.55,123.55,0,0,1,18.94,3.13c-1-.12-2.07-.23-3.12-.31v54.94A235.94,235.94,0,0,0,287,161.19c16.53,13.39,41.1,31.4,53.48,29.31a49,49,0,0,0,6.18-.94c4.78,39,1.14,84.49-11.14,127.94h20C378.93,234.76,371,144.64,333.19,105.82Z"/></svg>