<svg xmlns="http://www.w3.org/2000/svg" viewBox="0 0 500 500"><title>HairShadow-8</title><path d="M250,63.5a113.93,113.93,0,0,1,26.45,3.1,44,44,0,1,0-77.16,8.88A112.24,112.24,0,0,1,250,63.5Z" opacity="0.18"/><path d="M166,206a14.27,14.27,0,0,1,4,.58V188.35c-5.8-2.81-25.85-13.62-28.42-29.8,0,0-5.6,26.16,10.76,56.87A15,15,0,0,1,166,206Z" opacity="0.18"/><path d="M358.74,180.49a102.32,102.32,0,0,0,.61-11,101.21,101.21,0,0,0-10.58-45.12,39.92,39.92,0,0,1-6.46,8.1A84.13,84.13,0,0,1,291.92,149c-28.44,0-53.57-13.86-67.68-34.5h-.73c8.5,31.68,40.13,55.5,77.41,55.5A86,86,0,0,0,327,166a79.26,79.26,0,0,1,3.16,15.55h0l.33,3h-.08c.1,1.65.17,3.32.17,5v17.41a14.74,14.74,0,0,1,3.41-.41,15,15,0,0,1,14,9.62,101.64,101.64,0,0,0,10.22-31.43h0v-.09s0-.07,0-.1h0l.39-3h0c0-.2,0-.41.07-.62l.05-.39Z" opacity="0.18"/></svg>