<svg id="Layer_1" data-name="Layer 1" xmlns="http://www.w3.org/2000/svg" viewBox="0 0 500 500"><defs><style>.cls-1{fill:#53453e;}</style></defs><title>Hair-11</title><path class="cls-1" d="M344.42,180.35a14,14,0,0,0-6.92-23.52V146.5a12,12,0,0,0-12-12h-2a12,12,0,0,0-12,12v48a12,12,0,0,0,12,12h2a13.39,13.39,0,0,0,1.43-.09c.52.05,1,.09,1.57.09h9a14,14,0,0,0,6.92-26.15Z"/><path class="cls-1" d="M155.58,180.35a14,14,0,0,1,6.92-23.52V146.5a12,12,0,0,1,12-12h2a12,12,0,0,1,12,12v48a12,12,0,0,1-12,12h-2a13.39,13.39,0,0,1-1.43-.09c-.52.05-1,.09-1.57.09h-9a14,14,0,0,1-6.92-26.15Z"/></svg>