<svg id="Layer_1" data-name="Layer 1" xmlns="http://www.w3.org/2000/svg" viewBox="0 0 500 500"><defs><style>.cls-1{fill:#53453e;}</style></defs><title>HairBack-16</title><path class="cls-1" d="M136.39,341.5h-24a3.1,3.1,0,0,1-2.88-3.29V132.68c0-16.11,11.42-29.18,25.52-29.18h1.37c14.09,0,33.11,14.28,33.11,30.4l-7.59,178.42C161.91,328.43,150.48,341.5,136.39,341.5Z"/><path class="cls-1" d="M391.5,334.5H364.37c-14.1,0-25.53-12.84-25.53-28.69l-5.34-178c0-15.84,16.77-28.3,30.87-28.3H366c14.1,0,25.53,12.84,25.53,28.69Z"/><ellipse class="cls-1" cx="250" cy="168.5" rx="109.26" ry="105"/></svg>