<svg id="Layer_1" data-name="Layer 1" xmlns="http://www.w3.org/2000/svg" viewBox="0 0 500 500"><defs><style>.cls-1{opacity:0.18;}</style></defs><title>HairShadow-11</title><path class="cls-1" d="M344.42,180.35a14,14,0,0,0-6.92-23.52V146.5a12,12,0,0,0-12-12h-2l-.44,0c5.11.24,9.24,5.53,9.24,12v10.33c5,1.39,8.8,7,8.8,13.67a15.84,15.84,0,0,1-3.27,9.85c3.38,2.42,5.67,7,5.67,12.15,0,7.7-5,9-11.2,9h-7.2a10.36,10.36,0,0,1-1.25-.09,8.77,8.77,0,0,1-1.15.09h-1.6c-4.57,0-8.41-.31-9.37-4.66a12.05,12.05,0,0,0,11.77,9.66h2a13.39,13.39,0,0,0,1.43-.09c.52.05,1,.09,1.57.09h9a14,14,0,0,0,6.92-26.15Z"/><path class="cls-1" d="M155.58,180.35a14,14,0,0,1,6.92-23.52V146.5a12,12,0,0,1,12-12h2l.44,0c-5.11.24-9.24,5.53-9.24,12v10.33c-5,1.39-8.8,7-8.8,13.67a15.84,15.84,0,0,0,3.27,9.85c-3.38,2.42-5.67,7-5.67,12.15,0,7.7,5,9,11.2,9h7.2a10.36,10.36,0,0,0,1.25-.09,8.77,8.77,0,0,0,1.15.09h1.6c4.57,0,8.41-.31,9.37-4.66a12.05,12.05,0,0,1-11.77,9.66h-2a13.39,13.39,0,0,1-1.43-.09c-.52.05-1,.09-1.57.09h-9a14,14,0,0,1-6.92-26.15Z"/></svg>