<svg id="Layer_1" data-name="Layer 1" xmlns="http://www.w3.org/2000/svg" viewBox="0 0 500 500"><defs><style>.cls-1{fill:#53453e;}</style></defs><title>Hair-15</title><circle class="cls-1" cx="337" cy="79.5" r="39"/><circle class="cls-1" cx="163" cy="84.5" r="39"/><path class="cls-1" d="M150.41,217.5s2.5,78.45,22.52,113.62c0,0-7.51-138,7.51-165,0,0,4.56-7.6,6.56,4.4,0,0,41-15.22,56-15.22l1.9-8.19a4.6,4.6,0,0,1,3.46-3.46c2.12-.49,4.65-.74,4.65.83v11s24,3,35,12c0,0,2.53-6.81,5-9.51s3,12.51,3,12.51,22,5,25.55,9.13c3.88,4.52,5,127.14-2.51,154.19,0,0,22.52-10.82,22.52-116.32,0,0,12.52,0,15,5.41s7.5-73,0-89.27S326.05,64,253.49,64,122.88,122.82,142.9,217.5Z"/></svg>