<svg id="Layer_1" data-name="Layer 1" xmlns="http://www.w3.org/2000/svg" viewBox="0 0 500 500"><defs><style>.cls-1{opacity:0.18;}</style></defs><title>HairShadow-15</title><path class="cls-1" d="M201,75.54a39,39,0,1,0-48.4,46.53A105.54,105.54,0,0,1,201,75.54Z"/><path class="cls-1" d="M376,79.5a39,39,0,0,0-77.34-7.1A97.73,97.73,0,0,1,334,97.53s0,0,0,0c-6-5-26.58-7.44-43-4-54.49,11.43-94.63,37.2-107,62a23.86,23.86,0,0,0-2.4,9.17c1.49-1.42,4-2.34,5.4,5.83,0,0,41-15.22,56-15.22l1.9-8.19a4.6,4.6,0,0,1,3.46-3.46c2.12-.49,4.65-.74,4.65.83v11s24,3,35,12c0,0,2.53-6.81,5-9.51s3,12.51,3,12.51,22,5,25.55,9.13c3.88,4.52,5,127.14-2.51,154.19,0,0,22.52-10.82,22.52-116.32,0,0,12.52,0,15,5.41s7.5-73,0-89.27c-1.69-3.66-4.56-10-8.38-16.79A39,39,0,0,0,376,79.5Zm-35.2,26.32c-1.58-2-3.27-4.18-4.59-5.79Q338.67,102.94,340.8,105.82Z"/></svg>