<svg xmlns="http://www.w3.org/2000/svg" viewBox="0 0 500 500"><title>Hair-6</title><path d="M361.5,131.5a20.87,20.87,0,0,0-2.78-10.41,20.62,20.62,0,0,0,.78-5.59,21,21,0,0,0-14.62-20,20.91,20.91,0,0,0-16.46-25.61,21,21,0,0,0-37.83-10.79,20.88,20.88,0,0,0-9.12-4.2,20.93,20.93,0,0,0-27.08-4.19,21,21,0,0,0-31.53,2,21,21,0,0,0-30.27,17A21,21,0,0,0,164.5,89.5a20.36,20.36,0,0,0,.12,2.22,20.93,20.93,0,0,0-16.92,27.73,21,21,0,0,0,8.8,40.05,21.47,21.47,0,0,0,4.77-.56A21,21,0,0,0,194,181.35a20.93,20.93,0,0,0,27.5-2.17,20.93,20.93,0,0,0,27.5,2.17,20.94,20.94,0,0,0,25.94-.72A20.88,20.88,0,0,0,298,179.35a20.94,20.94,0,0,0,12.5,4.15c.17,0,.33,0,.5,0s.33,0,.5,0a20.94,20.94,0,0,0,12.5-4.15,21,21,0,0,0,28.39-30.55A21,21,0,0,0,361.5,131.5Z" fill="#53453e"/></svg>