<svg xmlns="http://www.w3.org/2000/svg" viewBox="0 0 500 500"><title>HairShadow-6</title><g opacity="0.18"><path d="M334.41,72a19.16,19.16,0,0,1,.29,3.32,19.48,19.48,0,0,1-.57,4.62,19.46,19.46,0,0,1,11.32,9.53A20.93,20.93,0,0,0,334.41,72Z"/><path d="M318.91,56.27a19,19,0,0,1,4.36,1.4,20.75,20.75,0,0,0-4.77-4A19.1,19.1,0,0,1,318.91,56.27Z"/><path d="M151.78,102.12a19.89,19.89,0,0,1-.71-2.65,20.84,20.84,0,0,0-2.87,4.81A19.15,19.15,0,0,1,151.78,102.12Z"/><path d="M361.5,131.5a20.87,20.87,0,0,0-2.78-10.41,20.62,20.62,0,0,0,.78-5.59,21,21,0,0,0-11.95-18.93c.06.62.1,1.25.1,1.89a19.16,19.16,0,0,1-.72,5.17,19.38,19.38,0,0,1-5.85,25.63,19.4,19.4,0,0,1-26.26,28.25,19.31,19.31,0,0,1-11.56,3.84c-.16,0-.31,0-.46,0l-.46,0a19.31,19.31,0,0,1-11.56-3.84,19.3,19.3,0,0,1-21.33,1.18,19.35,19.35,0,0,1-24,.67,19.36,19.36,0,0,1-25.43-2,19.36,19.36,0,0,1-25.43,2,19.38,19.38,0,0,1-30.27-20.73,19.34,19.34,0,0,1-23.27-14.33,21,21,0,0,0,15.44,35.2,21.47,21.47,0,0,0,4.77-.56A21,21,0,0,0,194,181.35a20.93,20.93,0,0,0,27.5-2.17,20.93,20.93,0,0,0,27.5,2.17,20.94,20.94,0,0,0,25.94-.72A20.88,20.88,0,0,0,298,179.35a20.94,20.94,0,0,0,12.5,4.15c.17,0,.33,0,.5,0s.33,0,.5,0a20.94,20.94,0,0,0,12.5-4.15,21,21,0,0,0,28.39-30.55A21,21,0,0,0,361.5,131.5Z"/></g></svg>