<svg id="Layer_1" data-name="Layer 1" xmlns="http://www.w3.org/2000/svg" viewBox="0 0 500 500"><defs><style>.cls-1{fill:#53453e;}</style></defs><title>HairBack-12</title><path class="cls-1" d="M417.5,313A26.49,26.49,0,0,0,400,288.08a31.13,31.13,0,0,0-14.13-45.84,23.49,23.49,0,0,0-12-38c-.23-2.13-.51-4.28-.86-6.43A38.87,38.87,0,0,0,375.18,185c0-14-7.2-25.95-17.44-31-5.16-15.87-5.35-30.59-21.55-48.23A116.25,116.25,0,0,0,291.5,76c-8.82-3.29-50.75-15.09-88.93,0a129.07,129.07,0,0,0-42.21,29.8c-16.79,18.17-11.18,21.45-22.53,51.87-8,5.44-13.33,15.64-13.33,27.33a37.12,37.12,0,0,0,1.25,9.59,31.49,31.49,0,0,0-18,55.51,26.22,26.22,0,0,0-2.46,2.16,26.51,26.51,0,0,0-5.65,29.09,32.5,32.5,0,0,0,4.11,64,26.52,26.52,0,0,0,15.88,21.05,31.49,31.49,0,0,0,58.91,13,26.52,26.52,0,0,0,36.68-20.26c14.88-1.06,34.14-1.57,64.53-.57a29.49,29.49,0,0,0,46.58,20.38,25.49,25.49,0,0,0,43.48-3.44,33.48,33.48,0,0,0,31.41-38A26.5,26.5,0,0,0,417.5,313Z"/></svg>