<svg id="Layer_1" data-name="Layer 1" xmlns="http://www.w3.org/2000/svg" viewBox="0 0 500 500"><defs><style>.cls-1{opacity:0.18;}</style></defs><title>HairShadow-12</title><path class="cls-1" d="M417.5,313A26.49,26.49,0,0,0,400,288.08a31.13,31.13,0,0,0-14.13-45.84,23.49,23.49,0,0,0-12-38c-.23-2.13-.51-4.28-.86-6.43A38.87,38.87,0,0,0,375.18,185c0-14-7.2-25.95-17.44-31-5.16-15.87-5.35-30.59-21.55-48.23A116.25,116.25,0,0,0,291.5,76c-6.71-2.5-32.58-9.92-61.38-6.69a156.86,156.86,0,0,1,22.38,4v53.43A235.94,235.94,0,0,0,287,161.19c15.89,12.87,40,31.7,51.88,28.31h6a38,38,0,0,1-1.88,8.32c.35,2.15.63,4.3.86,6.43a23.49,23.49,0,0,1,12,38A31.13,31.13,0,0,1,370,288.08a26.5,26.5,0,0,1,1.18,49.39,33.48,33.48,0,0,1-31.41,38,25.6,25.6,0,0,1-7.77,9.16,25.47,25.47,0,0,0,37.77-9.16,33.48,33.48,0,0,0,31.41-38A26.5,26.5,0,0,0,417.5,313Z"/><path class="cls-1" d="M215.5,358c-12.26.08-22,.5-30.31,1.09a26.52,26.52,0,0,1-36.68,20.26A31.64,31.64,0,0,1,136,391.69a31.49,31.49,0,0,0,42.52-12.35,26.52,26.52,0,0,0,36.68-20.26l.31,0Z"/></svg>