<svg xmlns="http://www.w3.org/2000/svg" viewBox="0 0 500 500"><title>Eyes-24</title><rect x="205.75" y="212.99" width="13" height="22" rx="6.5"/><path d="M223.19,196.74l-22.58.3a4,4,0,0,0-2.92,1.34,1,1,0,0,1-.13.09l-15.05,13a4,4,0,1,0,5.22,6.06L202.22,205l21.07-.28a4,4,0,1,0-.1-8Z" opacity="0.5"/><path d="M317.38,212l-17.63-14.11a8.73,8.73,0,0,0-3.5-1.19l-19.86.46a4,4,0,1,0,.19,8l18.89-.43,16.91,13.53a4,4,0,0,0,5.62-.62h0A4,4,0,0,0,317.38,212Z" opacity="0.5"/><rect x="278.11" y="213.01" width="13" height="22" rx="6.5"/></svg>