<svg id="Layer_1" data-name="Layer 1" xmlns="http://www.w3.org/2000/svg" viewBox="0 0 500 500"><defs><style>.cls-1{fill:#f5e3c3;}</style></defs><title>Head_type_2 copy</title><path class="cls-1" d="M334,211.5a15,15,0,0,0-4,.55V182.5a80.24,80.24,0,0,0-80-80h0a80.24,80.24,0,0,0-80,80v29.08a14.27,14.27,0,0,0-4-.58c-8.28,0-15,7.16-15,16,0,8.15,10.82,20.83,19,22.74V268.5h0c0,11,3.25,21.31,8.39,30.64.52.95,1.07,1.88,1.63,2.81s.95,1.56,1.45,2.33c.73,1.12,1.48,2.22,2.25,3.31s1.57,2.15,2.39,3.2c.41.53.82,1,1.24,1.57,1.21,1.49,2.46,2.95,3.74,4.36s2.34,2.53,3.54,3.75c.69.7,1.38,1.39,2.08,2.07.94.9,1.89,1.78,2.84,2.64s1.91,1.71,2.88,2.53,1.93,1.62,2.9,2.4c.76.61,1.52,1.2,2.28,1.79C209,333,210.37,334,211.75,335c.76.54,1.53,1.07,2.28,1.58q1.44,1,2.85,1.86l.62.39V446.5h65V338.38a138.4,138.4,0,0,0,18.25-14.13q1.46-1.33,2.88-2.73a118.12,118.12,0,0,0,8.23-8.9c.87-1,1.72-2.1,2.54-3.18a91.67,91.67,0,0,0,6.79-10.16c5.37-9.4,8.81-19.78,8.81-30.78h0V249.24c8.18-2,19-15.1,19-22.74A15,15,0,0,0,334,211.5Z"/></svg>