<svg id="Layer_1" data-name="Layer 1" xmlns="http://www.w3.org/2000/svg" viewBox="0 0 500 500"><defs><style>.cls-1{opacity:0.04;}</style></defs><title>Head_shadow_2</title><g class="cls-1"><path d="M170,211.58a14.27,14.27,0,0,0-4-.58c-8.28,0-15,7.16-15,16,0,8.15,10.82,20.83,19,22.74Z"/><path d="M334,211.5a15,15,0,0,0-4,.55v37.19c8.18-2,19-15.1,19-22.74A15,15,0,0,0,334,211.5Z"/><path d="M261,333.5H239c-17-3-69-36-69-80v15c0,31.24,26.21,56.93,47.5,70.28V449.5h65V338.38c20.91-13.53,47.5-39.29,47.5-69.88v-15C330,297.5,275,331.5,261,333.5Z"/><path d="M242.76,259.67l3,4.2a5.54,5.54,0,0,0,8.5,0l3-4.2,3-4.2c1.88-2.66-.48-6-4.25-6H244c-3.77,0-6.13,3.31-4.25,6Z"/></g></svg>