<svg xmlns="http://www.w3.org/2000/svg" viewBox="0 0 500 500"><path d="M334,185.5a15,15,0,0,0-4,.55V156.5a80.24,80.24,0,0,0-80-80h0a80.24,80.24,0,0,0-80,80v29.08a14.27,14.27,0,0,0-4-.58c-8.28,0-15,7.16-15,16,0,8.15,10.82,20.83,19,22.74V252.5h0c0,4.5,2.94,11.13,7.61,18.53.29.46.59.93.9,1.4.61.94,1.24,1.88,1.9,2.84s1.35,1.92,2.05,2.89q1.59,2.19,3.31,4.4l1.16,1.47q1.75,2.22,3.61,4.42c.41.49.83,1,1.25,1.46q1.88,2.19,3.84,4.34c.43.48.86.95,1.3,1.42.88.95,1.76,1.88,2.65,2.8s1.77,1.83,2.67,2.72,1.79,1.77,2.68,2.63l1.35,1.28c1.79,1.68,3.58,3.28,5.34,4.79l1.32,1.11c1.32,1.09,2.61,2.13,3.89,3.09l.67.5V373.5h65v-61c2.53-2,5.13-4.11,7.76-6.44l1.41-1.27c1.88-1.7,3.77-3.48,5.64-5.31.47-.46.94-.92,1.4-1.39q2.1-2.08,4.17-4.25c.45-.49.91-1,1.36-1.45.9-1,1.8-1.95,2.68-2.93.45-.49.88-1,1.32-1.47q2-2.2,3.82-4.43c.82-1,1.63-2,2.42-3,1.18-1.48,2.32-2.94,3.4-4.38.37-.48.72-1,1.07-1.44q1.57-2.15,3-4.22l.91-1.37c4.42-6.79,7.17-12.76,7.17-16.74h0V223.24c8.18-2,19-15.1,19-22.74A15,15,0,0,0,334,185.5Z" fill="#f5e3c3"/></svg>