<svg xmlns="http://www.w3.org/2000/svg" viewBox="0 0 500 500"><path d="M334,185.5a15,15,0,0,0-4,.55V156.5a80.24,80.24,0,0,0-80-80h0a80.24,80.24,0,0,0-80,80v29.08a14.27,14.27,0,0,0-4-.58c-8.28,0-15,7.16-15,16,0,8.15,10.82,20.83,19,22.74V242.5h0c0,10.31,3.24,20.24,8.47,29.38.7,1.22,1.44,2.43,2.2,3.62s1.56,2.37,2.39,3.53,1.69,2.3,2.57,3.43,1.65,2.05,2.5,3.06c.54.63,1.09,1.27,1.65,1.89s1,1.07,1.45,1.6c.73.79,1.47,1.57,2.23,2.33q2.25,2.31,4.61,4.47c.81.74,1.62,1.47,2.43,2.18l1.63,1.39c.78.66,1.57,1.3,2.36,1.94s1.72,1.36,2.58,2c1.11.84,2.23,1.67,3.35,2.46s2.24,1.58,3.36,2.32,2.24,1.48,3.36,2.17l.36.23v63h65V310l1.16-.73c1.69-1.09,3.39-2.23,5.08-3.43,1.13-.79,2.25-1.62,3.38-2.46s2.24-1.72,3.35-2.61,2.21-1.81,3.3-2.74,2.17-1.9,3.24-2.87,2.12-2,3.15-3,2.06-2.05,3.06-3.11c.49-.53,1-1.06,1.48-1.6,1.46-1.61,2.88-3.26,4.24-5q1.35-1.69,2.63-3.43c.84-1.16,1.66-2.34,2.45-3.53s1.54-2.4,2.25-3.62c5.38-9.14,8.73-19.07,8.73-29.38h0V223.24c8.18-2,19-15.1,19-22.74A15,15,0,0,0,334,185.5Z" fill="#f5e3c3"/></svg>