<svg xmlns="http://www.w3.org/2000/svg" viewBox="0 0 500 500"><path d="M334,185.5a15,15,0,0,0-4,.55V156.5a80.24,80.24,0,0,0-80-80h0a80.24,80.24,0,0,0-80,80v29.08a14.27,14.27,0,0,0-4-.58c-8.28,0-15,7.16-15,16,0,8.15,10.82,20.83,19,22.74V218.8a60.07,60.07,0,0,0,3.44,19.39c.6,1.78,1.27,3.55,2,5.3a183.13,183.13,0,0,0,8.89,18l3.11,5.7,2.24,4.09c.6,1.09,1.18,2.15,1.76,3.19q1.42,2.59,2.76,5,1.94,3.5,3.69,6.58c.61,1.07,1.2,2.11,1.78,3.11.74,1.28,1.46,2.51,2.17,3.69.57,1,1.14,1.91,1.69,2.82l1.13,1.82c1.11,1.77,2.17,3.41,3.2,4.91s2,2.89,3,4.16c.79,1,1.57,2,2.35,2.88.52.59,1,1.15,1.54,1.68s1,1,1.54,1.51.81.73,1.21,1.07V373.5h65V310.77l.7-.7.8-.86c.81-.86,1.62-1.79,2.46-2.8l.84-1c.44-.55.89-1.13,1.35-1.73,6.81-8.88,15.17-22.58,28.35-44.2a118.61,118.61,0,0,0,6.88-12.79c1.07-2.34,2-4.72,2.87-7.14A56.12,56.12,0,0,0,330,221.19v2.05c8.18-2,19-15.1,19-22.74A15,15,0,0,0,334,185.5Z" fill="#f5e3c3"/></svg>