<svg id="Layer_1" data-name="Layer 1" xmlns="http://www.w3.org/2000/svg" viewBox="0 0 500 500"><defs><style>.cls-1{fill:#f5e3c3;}</style></defs><title>Head_type_1 copy</title><path class="cls-1" d="M334,211.5a15,15,0,0,0-4,.55V182.5a80.24,80.24,0,0,0-80-80h0a80.24,80.24,0,0,0-80,80v29.08a14.27,14.27,0,0,0-4-.58c-8.28,0-15,7.16-15,16,0,8.15,10.82,20.83,19,22.74V268.5h0a79,79,0,0,0,4.88,27.43,80.53,80.53,0,0,0,42.62,45.6v105h65v-105a80.36,80.36,0,0,0,24-16.53c1.81-1.81,3.54-3.71,5.17-5.69a80.32,80.32,0,0,0,13.46-23.38A79.27,79.27,0,0,0,330,268.5h0V249.24c8.18-2,19-15.1,19-22.74A15,15,0,0,0,334,211.5Z"/></svg>