<svg id="Layer_1" data-name="Layer 1" xmlns="http://www.w3.org/2000/svg" viewBox="0 0 500 500"><defs><style>.cls-1{fill:#f5e3c3;}</style></defs><title>Head_type_6 copy</title><path class="cls-1" d="M334,211.5a15,15,0,0,0-4,.55V182.5a80.24,80.24,0,0,0-80-80h0a80.24,80.24,0,0,0-80,80v29.08a14.27,14.27,0,0,0-4-.58c-8.28,0-15,7.16-15,16,0,8.15,10.82,20.83,19,22.74v61.59h0a36.56,36.56,0,0,0,1.32,9.76q.33,1.21.75,2.4A36.26,36.26,0,0,0,174.5,329c.58,1.05,1.2,2.08,1.87,3.06.48.72,1,1.41,1.53,2.08a37.61,37.61,0,0,0,5.66,5.83q.69.57,1.41,1.11a36.89,36.89,0,0,0,22.2,7.41H217.5v98h65v-98h10.28a37.67,37.67,0,0,0,5.65-.43,37.15,37.15,0,0,0,10.45-3.26c1.08-.52,2.14-1.1,3.16-1.72a37.63,37.63,0,0,0,9.43-8.17c.76-.92,1.48-1.88,2.15-2.87a35.38,35.38,0,0,0,1.87-3.07,36.94,36.94,0,0,0,4.51-17.7h0v-62c8.18-2,19-15.1,19-22.74A15,15,0,0,0,334,211.5Z"/></svg>