<svg xmlns="http://www.w3.org/2000/svg" viewBox="0 0 500 500"><path d="M170,185.58a14.27,14.27,0,0,0-4-.58c-8.28,0-15,7.16-15,16,0,8.15,10.82,20.83,19,22.74Z"/><path d="M334,185.5a15,15,0,0,0-4,.55v37.19c8.18-2,19-15.1,19-22.74A15,15,0,0,0,334,185.5Z"/><path d="M250,307.5a80.24,80.24,0,0,1-80-80v15a80.25,80.25,0,0,0,47.5,73v58h65v-58a80.25,80.25,0,0,0,47.5-73v-15A80.24,80.24,0,0,1,250,307.5Z"/><path d="M242.76,233.67l3,4.2a5.54,5.54,0,0,0,8.5,0l3-4.2,3-4.2c1.88-2.66-.48-6-4.25-6H244c-3.77,0-6.13,3.31-4.25,6Z"/></svg>