<svg id="Layer_1" data-name="Layer 1" xmlns="http://www.w3.org/2000/svg" viewBox="0 0 500 500"><defs><style>.cls-1{fill:#f5e3c3;}</style></defs><title>Head_type_3 copy</title><path class="cls-1" d="M334,211.5a15,15,0,0,0-4,.55V182.5a80.24,80.24,0,0,0-80-80h0a80.24,80.24,0,0,0-80,80v29.08a14.27,14.27,0,0,0-4-.58c-8.28,0-15,7.16-15,16,0,8.15,10.82,20.82,19,22.74V268.5h0c0,10.31,3.24,20.24,8.47,29.38.7,1.22,1.44,2.43,2.2,3.62s1.56,2.36,2.39,3.52,1.69,2.31,2.57,3.43,1.65,2.06,2.5,3.06c.54.64,1.09,1.27,1.65,1.9s1,1.07,1.45,1.6c.73.79,1.47,1.56,2.23,2.33q2.25,2.3,4.61,4.47L200.5,324c.54.46,1.08.93,1.63,1.38.78.66,1.57,1.31,2.36,1.94s1.72,1.37,2.58,2c1.11.85,2.23,1.67,3.35,2.47s2.24,1.57,3.36,2.32,2.24,1.47,3.36,2.17l.36.22v110h65V336l1.16-.73c1.69-1.09,3.39-2.23,5.08-3.43,1.13-.8,2.25-1.62,3.38-2.47s2.24-1.71,3.35-2.6,2.21-1.81,3.3-2.74,2.17-1.9,3.24-2.88,2.12-2,3.15-3,2.06-2.06,3.06-3.11c.49-.53,1-1.06,1.48-1.6,1.46-1.61,2.88-3.27,4.24-5,.9-1.12,1.78-2.27,2.63-3.43s1.66-2.33,2.45-3.52,1.54-2.4,2.25-3.62c5.38-9.14,8.73-19.07,8.73-29.38h0V249.24c8.18-2,19-15.1,19-22.74A15,15,0,0,0,334,211.5Z"/></svg>