<svg id="Layer_1" data-name="Layer 1" xmlns="http://www.w3.org/2000/svg" viewBox="0 0 500 500"><defs><style>.cls-1{opacity:0.04;}</style></defs><title>Head_shadow_4</title><g class="cls-1"><path d="M334,211.5a15,15,0,0,0-4,.55v20.14c0,13.84-5.8,26.45-13,38.26-36,59.05-36,59.05-67,63.05-34-3-34-3-65.68-61C176.93,259,170,245.21,170,229.8V211.58a14.27,14.27,0,0,0-4-.58c-8.28,0-15,7.16-15,16,0,8.15,10.82,20.83,19,22.74V244.8c0,15.41,6.93,29.17,14.32,42.69,16.62,30.43,24.52,44.89,33.18,52.2V449.5h65V336.77c8.14-8.08,17.13-22.82,34.5-51.32,7.2-11.81,13-24.42,13-38.26v2.05c8.18-2,19-15.1,19-22.74A15,15,0,0,0,334,211.5Z"/><path d="M242.76,259.67l3,4.2a5.54,5.54,0,0,0,8.5,0l3-4.2,3-4.2c1.88-2.66-.48-6-4.25-6H244c-3.77,0-6.13,3.31-4.25,6Z"/></g></svg>