<svg xmlns="http://www.w3.org/2000/svg" viewBox="0 0 500 500"><path d="M170,185.58a14.27,14.27,0,0,0-4-.58c-8.28,0-15,7.16-15,16,0,8.15,10.82,20.83,19,22.74Z"/><path d="M334,185.5a15,15,0,0,0-4,.55v37.19c8.18-2,19-15.1,19-22.74A15,15,0,0,0,334,185.5Z"/><path d="M250,307.5h0c-21,1-80-36-80-80v15c0,28.34,24.47,53.77,47.5,68v63h65V310c22.84-14.35,47.5-39.49,47.5-67.46v-15C330,271.5,269,308.5,250,307.5Z"/><path d="M242.76,233.67l3,4.2a5.54,5.54,0,0,0,8.5,0l3-4.2,3-4.2c1.88-2.66-.48-6-4.25-6H244c-3.77,0-6.13,3.31-4.25,6Z"/></svg>