<svg id="Layer_1" data-name="Layer 1" xmlns="http://www.w3.org/2000/svg" viewBox="0 0 500 500"><defs><style>.cls-1{fill:#53453e;}</style></defs><title>Hair_1</title><path class="cls-1" d="M360.5,108.5a20.87,20.87,0,0,0-2.78-10.41,20.62,20.62,0,0,0,.78-5.59,21,21,0,0,0-14.62-20,20.91,20.91,0,0,0-16.46-25.61,21,21,0,0,0-37.83-10.79,20.88,20.88,0,0,0-9.12-4.2,20.93,20.93,0,0,0-27.08-4.19,21,21,0,0,0-31.53,2,21,21,0,0,0-30.27,17A21,21,0,0,0,163.5,66.5a20.36,20.36,0,0,0,.12,2.22A20.93,20.93,0,0,0,146.7,96.45a21,21,0,0,0,8.8,40.05,21.47,21.47,0,0,0,4.77-.56A21,21,0,0,0,193,158.35a20.93,20.93,0,0,0,27.5-2.17,20.93,20.93,0,0,0,27.5,2.17,20.94,20.94,0,0,0,25.94-.72A20.88,20.88,0,0,0,297,156.35a20.94,20.94,0,0,0,12.5,4.15c.17,0,.33,0,.5,0s.33,0,.5,0a20.94,20.94,0,0,0,12.5-4.15,21,21,0,0,0,28.39-30.55A21,21,0,0,0,360.5,108.5Z"/></svg>