<svg id="Layer_1" data-name="Layer 1" xmlns="http://www.w3.org/2000/svg" viewBox="0 0 500 500"><defs><style>.cls-1,.cls-2{opacity:0.04;}</style></defs><title>Head Shadow</title><path class="cls-1" d="M252.61,223.5h6c3.77,0,6.13,3.31,4.25,6l-3,4.2-3,4.2c-1.89,2.65-6.61,2.65-8.49,0l-3-4.2-3-4.2c-1.88-2.66.48-6,4.25-6Z"/><path class="cls-1" d="M252,307.5h0a80.24,80.24,0,0,1-80-80v15a80.24,80.24,0,0,0,46,72.35V373.5h65V316.21a80.28,80.28,0,0,0,49-73.71v-15A80.24,80.24,0,0,1,252,307.5Z"/><g class="cls-2"><path d="M172,185.59a13.92,13.92,0,0,0-4-.59c-8.28,0-15,7.16-15,16,0,8.15,10.82,20.83,19,22.74Z"/><path d="M336,185.5a15,15,0,0,0-4,.55v37.19c8.18-2,19-15.1,19-22.74A15,15,0,0,0,336,185.5Z"/></g></svg>