<svg id="Layer_1" data-name="Layer 1" xmlns="http://www.w3.org/2000/svg" viewBox="0 0 500 500"><defs><style>.cls-1{fill:#600;}.cls-2{fill:#fff;}</style></defs><title>Mouth</title><path fill='#600' d="M219.51,255.5c0,.17,0,.33,0,.5a35.5,35.5,0,0,0,71,0c0-.17,0-.33,0-.5Z"/><path class="cls-1" d="M230.72,281.88A35.46,35.46,0,0,0,276,284.65c-3.22-10.15-12.05-17.54-22.59-17.77C243.44,266.66,234.77,272.83,230.72,281.88Z"/><path fill='#fff' class="cls-2" d="M289.2,265.5a35.43,35.43,0,0,0,1.3-9.5c0-.17,0-.33,0-.5h-71c0,.17,0,.33,0,.5a35.43,35.43,0,0,0,1.3,9.5Z"/></svg>